# Blender v3.2.0 OBJ File: ''
# www.blender.org
mtllib char.mtl
o Cube
v -0.410294 4.185738 -0.825007
v -0.410294 3.094864 -0.825007
v -0.410294 4.185738 0.265867
v -0.797283 2.185738 -0.121122
v -1.501168 4.185738 -0.825007
v -2.074057 2.521975 -1.734133
v -1.501168 4.185738 0.265867
v -1.501168 3.094864 0.265867
v -0.746530 3.849502 -1.734133
v -0.746530 2.521975 -1.734133
v -2.023304 2.185738 -0.121122
v -2.410294 4.185738 0.265867
v -0.410294 3.094864 0.265867
v -2.074057 3.849502 -1.734133
v -0.797283 2.185738 -1.347143
v -2.023304 2.185738 -1.347143
v -0.410294 4.185738 -1.734133
v -2.410294 4.185738 -1.734133
v -1.501168 4.185738 -0.825007
v -0.410294 4.185738 -0.825007
v -2.410294 4.185738 -1.734133
v -0.410294 4.185738 -1.734133
v -0.410294 2.185738 -1.734133
v -2.410294 2.185738 -1.734133
v -2.410294 2.185738 -1.734133
v -2.410294 2.185738 0.265867
v -0.410294 2.185738 -1.734133
v -0.410294 2.185738 0.265867
v -2.023304 1.280786 -1.347143
v -2.023304 1.280786 -0.121122
v -0.797283 1.280786 -1.347143
v -0.797283 1.280786 -0.121122
v -2.023304 -1.202069 -1.347143
v -0.797283 -1.202069 -1.347143
v -0.797283 -1.202069 -0.121122
v -2.023304 -1.202069 -0.121122
v -2.493991 1.280786 -1.347143
v -2.493991 -1.202069 -1.347143
v -2.493991 -1.202069 -0.121122
v -2.493991 1.280786 -0.121122
v -0.260461 0.993256 -0.408652
v -0.260461 -0.914539 -0.408652
v -0.260461 -0.914539 -1.059613
v -0.260461 0.993256 -1.059613
v -2.476076 -0.920280 -1.065354
v -2.476076 0.998997 -1.065354
v -2.476076 -0.920280 -0.402912
v -2.476076 0.998997 -0.402912
v -2.476076 -1.202069 -1.347143
v -2.476076 1.280786 -1.347143
v -2.476076 -1.202069 -0.121122
v -2.476076 1.280786 -0.121122
v -2.476076 1.280786 -1.347143
v -2.476076 1.280786 -0.121122
v -2.476076 0.998997 -1.065354
v -2.476076 0.998997 -0.402912
v -2.476076 1.280786 -1.347143
v -2.476076 1.280786 -0.121122
v -2.476076 0.998997 -1.065354
v -2.476076 0.998997 -0.402912
v -3.649067 1.280786 -1.347143
v -3.649067 1.280786 -0.121122
v -3.649067 0.998997 -1.065354
v -3.649067 0.998997 -0.402912
v -0.260461 -1.202069 -0.121122
v -0.260461 1.280786 -0.121122
v -0.260461 -1.202069 -1.347143
v -0.260461 1.280786 -1.347143
v 0.997113 1.280786 -0.121122
v 0.997113 1.280786 -1.347143
v 0.997113 0.993256 -0.408652
v 0.997113 0.993256 -1.059613
v -3.719604 1.280786 -1.347143
v -3.719604 1.280786 -0.121122
v -3.719604 0.998997 -1.065354
v -3.719604 0.998997 -0.402912
v -0.797283 -2.223465 -0.121122
v -0.797283 -2.223465 -1.347143
v -0.260461 -2.223465 -1.347143
v -0.260461 -2.223465 -0.121122
v -2.023304 -2.177702 -1.347143
v -2.023304 -2.177702 -0.121122
v -2.476076 -2.177702 -0.121122
v -2.476076 -2.177702 -1.347143
vt 0.761359 0.613641
vt 0.625000 0.750000
vt 0.625000 0.613641
vt 0.488641 0.886359
vt 0.488641 0.750000
vt 0.625000 0.000000
vt 0.375000 0.250000
vt 0.375000 0.000000
vt 0.173374 0.548374
vt 0.173374 0.701626
vt 0.173374 0.701626
vt 0.488641 0.613641
vt 0.582970 0.292030
vt 0.417030 0.457970
vt 0.417030 0.292030
vt 0.625000 0.500000
vt 0.625000 1.000000
vt 0.375000 1.000000
vt 0.375000 0.750000
vt 0.875000 0.750000
vt 0.761359 0.750000
vt 0.761359 0.613641
vt 0.625000 0.500000
vt 0.875000 0.500000
vt 0.375000 0.500000
vt 0.375000 0.250000
vt 0.000000 0.000000
vt 0.000000 0.000000
vt 0.000000 0.000000
vt 0.000000 0.000000
vt 0.000000 0.000000
vt 0.000000 0.000000
vt 0.625000 0.613641
vt 0.875000 0.500000
vt 0.582970 0.457970
vt 0.375000 0.500000
vt 0.625000 0.250000
vt 0.125000 0.500000
vt 0.326626 0.548374
vt 0.326626 0.701626
vt 0.125000 0.750000
vt 0.326626 0.548374
vt 0.173374 0.548374
vt 0.326626 0.701626
vt 0.326626 0.548374
vt 0.173374 0.701626
vt 0.173374 0.548374
vt 0.326626 0.665685
vt 0.326626 0.584315
vt 0.326626 0.665685
vt 0.173374 0.548374
vt 0.173374 0.548374
vt 0.173374 0.701626
vt 0.173374 0.548374
vt 0.173374 0.548374
vt 0.173374 0.548374
vt 0.173374 0.701626
vt 0.173374 0.701626
vt 0.173374 0.701626
vt 0.326626 0.701626
vt 0.326626 0.701626
vt 0.326626 0.548374
vt 0.326626 0.548374
vt 0.326626 0.548374
vt 0.326626 0.701626
vt 0.173374 0.583597
vt 0.173374 0.666403
vt 0.173374 0.583597
vt 0.173374 0.666403
vt 0.173374 0.583597
vt 0.173374 0.548374
vt 0.173374 0.548374
vt 0.173374 0.548374
vt 0.173374 0.666403
vt 0.173374 0.583597
vt 0.173374 0.701626
vt 0.173374 0.666403
vt 0.173374 0.701626
vt 0.173374 0.701626
vt 0.173374 0.666403
vt 0.173374 0.666403
vt 0.173374 0.583597
vt 0.326626 0.584315
vt 0.326626 0.584315
vt 0.326626 0.701626
vt 0.326626 0.665685
vt 0.326626 0.548374
vt 0.173374 0.548374
vt 0.173374 0.583597
vt 0.173374 0.701626
vt 0.326626 0.548374
vt 0.326626 0.701626
vt 0.326626 0.701626
vt 0.173374 0.701626
vt 0.173374 0.548374
vt 0.173374 0.701626
vt 0.625000 0.886359
vt 0.625000 0.250000
vt 0.000000 0.000000
vt 0.000000 0.000000
vn 0.0000 1.0000 0.0000
vn 0.0000 0.0000 1.0000
vn -1.0000 0.0000 0.0000
vn 1.0000 0.0000 0.0000
vn 0.0000 0.0000 -1.0000
vn 0.0000 -1.0000 0.0000
vn 0.0000 -0.7071 -0.7071
vn 0.0000 -0.7071 0.7071
usemtl Material
s off
f 19/1/1 3/2/1 20/3/1
f 3/2/2 8/4/2 13/5/2
f 12/6/3 25/7/3 26/8/3
f 16/9/3 30/10/3 11/11/3
f 20/3/4 13/5/4 2/12/4
f 14/13/5 10/14/5 6/15/5
f 2/12/4 17/16/4 20/3/4
f 8/4/2 12/17/2 26/18/2
f 8/4/2 28/19/2 13/5/2
f 19/1/1 12/20/1 7/21/1
f 5/22/1 22/23/1 21/24/1
f 2/12/4 28/19/4 27/25/4
f 24/26/2 27/25/2 25/7/2
f 23/27/2 17/28/2 27/29/2
f 21/30/2 25/31/2 18/32/2
f 1/33/2 19/1/2 20/3/2
f 22/23/2 20/3/2 17/16/2
f 5/22/2 18/34/2 19/1/2
f 14/13/5 22/23/5 9/35/5
f 10/14/5 24/26/5 6/15/5
f 9/35/5 23/36/5 10/14/5
f 6/15/5 21/37/5 14/13/5
f 11/11/6 25/38/6 16/9/6
f 16/9/6 27/25/6 15/39/6
f 4/40/6 26/41/6 11/11/6
f 15/39/6 28/19/6 4/40/6
f 4/40/4 31/42/4 15/39/4
f 15/39/5 29/43/5 16/9/5
f 11/11/2 32/44/2 4/40/2
f 34/45/6 36/46/6 33/47/6
f 34/45/5 29/43/5 31/42/5
f 36/46/2 32/44/2 30/10/2
f 42/48/4 44/49/4 41/50/4
f 49/51/5 29/43/5 33/47/5
f 33/47/5 84/52/5 49/51/5
f 54/53/2 36/46/2 30/10/2
f 53/54/1 30/10/1 29/43/1
f 49/51/2 37/55/2 38/56/2
f 51/57/1 38/56/1 39/58/1
f 54/53/5 39/58/5 40/59/5
f 53/54/6 40/59/6 37/55/6
f 65/60/2 32/44/2 35/61/2
f 67/62/5 78/63/5 34/45/5
f 68/64/5 34/45/5 31/42/5
f 66/65/1 31/42/1 32/44/1
f 45/66/3 56/67/3 55/68/3
f 55/68/3 49/51/3 45/66/3
f 45/66/3 51/57/3 47/69/3
f 47/69/3 54/53/3 56/67/3
f 46/70/7 61/71/7 50/72/7
f 57/73/2 54/53/2 53/54/2
f 60/74/2 55/68/2 56/67/2
f 59/75/2 53/54/2 55/68/2
f 58/76/2 56/67/2 54/53/2
f 50/72/2 58/76/2 57/73/2
f 48/77/2 59/75/2 60/74/2
f 46/70/2 57/73/2 59/75/2
f 52/78/2 60/74/2 58/76/2
f 62/79/8 76/80/8 64/81/8
f 50/72/1 62/79/1 52/78/1
f 52/78/8 64/81/8 48/77/8
f 48/77/6 63/82/6 46/70/6
f 41/50/4 65/60/4 42/48/4
f 42/48/4 67/62/4 43/83/4
f 43/83/4 68/64/4 44/49/4
f 68/64/7 72/84/7 44/49/7
f 72/84/4 69/85/4 71/86/4
f 41/50/8 69/85/8 66/65/8
f 44/49/6 71/86/6 41/50/6
f 66/65/1 70/87/1 68/64/1
f 76/80/3 73/88/3 75/89/3
f 64/81/6 75/89/6 63/82/6
f 63/82/7 73/88/7 61/71/7
f 61/71/1 74/90/1 62/79/1
f 79/91/6 77/92/6 78/63/6
f 35/61/2 80/93/2 65/60/2
f 34/45/3 77/92/3 35/61/3
f 65/60/4 79/91/4 67/62/4
f 83/94/6 81/95/6 82/96/6
f 51/57/2 82/96/2 36/46/2
f 36/46/4 81/95/4 33/47/4
f 49/51/3 83/94/3 51/57/3
f 19/1/1 7/21/1 3/2/1
f 3/2/2 7/97/2 8/4/2
f 12/6/3 18/98/3 25/7/3
f 16/9/3 29/43/3 30/10/3
f 20/3/4 3/2/4 13/5/4
f 14/13/5 9/35/5 10/14/5
f 2/12/4 27/25/4 17/16/4
f 8/4/2 7/97/2 12/17/2
f 8/4/2 26/18/2 28/19/2
f 19/1/1 18/34/1 12/20/1
f 5/22/1 1/33/1 22/23/1
f 2/12/4 13/5/4 28/19/4
f 24/26/2 23/36/2 27/25/2
f 23/27/2 22/99/2 17/28/2
f 21/30/2 24/100/2 25/31/2
f 1/33/2 5/22/2 19/1/2
f 22/23/2 1/33/2 20/3/2
f 5/22/2 21/24/2 18/34/2
f 14/13/5 21/37/5 22/23/5
f 10/14/5 23/36/5 24/26/5
f 9/35/5 22/23/5 23/36/5
f 6/15/5 24/26/5 21/37/5
f 11/11/6 26/41/6 25/38/6
f 16/9/6 25/38/6 27/25/6
f 4/40/6 28/19/6 26/41/6
f 15/39/6 27/25/6 28/19/6
f 4/40/4 32/44/4 31/42/4
f 15/39/5 31/42/5 29/43/5
f 11/11/2 30/10/2 32/44/2
f 34/45/6 35/61/6 36/46/6
f 34/45/5 33/47/5 29/43/5
f 36/46/2 35/61/2 32/44/2
f 42/48/4 43/83/4 44/49/4
f 49/51/5 53/54/5 29/43/5
f 33/47/5 81/95/5 84/52/5
f 54/53/2 51/57/2 36/46/2
f 53/54/1 54/53/1 30/10/1
f 49/51/2 53/54/2 37/55/2
f 51/57/1 49/51/1 38/56/1
f 54/53/5 51/57/5 39/58/5
f 53/54/6 54/53/6 40/59/6
f 65/60/2 66/65/2 32/44/2
f 67/62/5 79/91/5 78/63/5
f 68/64/5 67/62/5 34/45/5
f 66/65/1 68/64/1 31/42/1
f 45/66/3 47/69/3 56/67/3
f 55/68/3 53/54/3 49/51/3
f 45/66/3 49/51/3 51/57/3
f 47/69/3 51/57/3 54/53/3
f 46/70/7 63/82/7 61/71/7
f 57/73/2 58/76/2 54/53/2
f 60/74/2 59/75/2 55/68/2
f 59/75/2 57/73/2 53/54/2
f 58/76/2 60/74/2 56/67/2
f 50/72/2 52/78/2 58/76/2
f 48/77/2 46/70/2 59/75/2
f 46/70/2 50/72/2 57/73/2
f 52/78/2 48/77/2 60/74/2
f 62/79/8 74/90/8 76/80/8
f 50/72/1 61/71/1 62/79/1
f 52/78/8 62/79/8 64/81/8
f 48/77/6 64/81/6 63/82/6
f 41/50/4 66/65/4 65/60/4
f 42/48/4 65/60/4 67/62/4
f 43/83/4 67/62/4 68/64/4
f 68/64/7 70/87/7 72/84/7
f 72/84/4 70/87/4 69/85/4
f 41/50/8 71/86/8 69/85/8
f 44/49/6 72/84/6 71/86/6
f 66/65/1 69/85/1 70/87/1
f 76/80/3 74/90/3 73/88/3
f 64/81/6 76/80/6 75/89/6
f 63/82/7 75/89/7 73/88/7
f 61/71/1 73/88/1 74/90/1
f 79/91/6 80/93/6 77/92/6
f 35/61/2 77/92/2 80/93/2
f 34/45/3 78/63/3 77/92/3
f 65/60/4 80/93/4 79/91/4
f 83/94/6 84/52/6 81/95/6
f 51/57/2 83/94/2 82/96/2
f 36/46/4 82/96/4 81/95/4
f 49/51/3 84/52/3 83/94/3
